<?xml version="1.0" standalone="no"?>
<!DOCTYPE svg PUBLIC "-//W3C//DTD SVG 20010904//EN"
 "http://www.w3.org/TR/2001/REC-SVG-20010904/DTD/svg10.dtd">
<svg version="1.0" xmlns="http://www.w3.org/2000/svg"
 width="393.000000pt" height="326.000000pt" viewBox="0 0 393.000000 326.000000"
 preserveAspectRatio="xMidYMid meet">

<g transform="translate(0.000000,326.000000) scale(0.100000,-0.100000)"
fill="#000000" stroke="none">
<path d="M3350 3245 c7 -8 27 -15 45 -15 18 0 38 7 45 15 11 13 5 15 -45 15
-50 0 -56 -2 -45 -15z"/>
<path d="M1515 3118 c-53 -29 -233 -236 -292 -335 -58 -99 -79 -131 -100 -156
-12 -16 -26 -39 -29 -53 -3 -13 -23 -56 -43 -96 -21 -40 -43 -95 -50 -123 -7
-27 -21 -70 -31 -95 -31 -77 -49 -152 -61 -250 -10 -82 -9 -105 6 -172 20 -91
59 -157 115 -194 l40 -27 -24 -41 c-13 -23 -36 -61 -50 -86 -15 -25 -35 -63
-46 -85 -32 -68 -33 -69 -68 -51 -16 8 -36 22 -44 29 -12 12 -115 73 -235 138
-155 85 -271 78 -355 -20 -18 -22 -41 -61 -51 -88 -22 -62 -40 -231 -32 -297
22 -184 38 -244 111 -417 86 -204 208 -329 374 -381 56 -18 170 -24 184 -10 4
4 22 12 39 18 30 10 34 8 82 -41 87 -89 245 -133 379 -105 33 7 67 16 75 20 9
4 32 14 51 22 49 21 137 103 161 150 17 33 24 39 42 34 12 -3 29 -6 38 -6 14
0 16 -9 12 -63 -4 -46 -1 -71 10 -93 19 -35 61 -84 73 -84 4 0 18 -9 30 -21
48 -45 262 -76 414 -60 58 6 119 15 135 20 17 5 47 15 69 21 44 14 97 38 175
80 99 54 187 157 225 265 10 28 22 59 27 70 16 36 51 139 56 169 6 35 21 60
89 146 28 36 81 109 118 163 36 54 73 106 81 114 9 8 24 31 34 52 28 54 54 73
108 78 97 9 223 71 223 109 0 7 5 14 11 16 5 2 15 23 20 48 17 77 -30 158
-108 187 -21 8 -20 10 22 55 47 51 62 94 52 155 -12 72 -78 113 -184 113 -75
0 -92 10 -150 87 -15 21 -47 61 -70 89 -39 46 -42 55 -33 79 18 47 -19 203
-73 310 -38 77 -109 151 -154 161 -15 3 -50 14 -78 24 -45 17 -74 26 -200 59
-22 6 -82 16 -132 23 -57 8 -93 17 -93 24 0 6 18 29 39 51 37 36 64 52 147 83
26 9 31 16 26 33 -11 43 -51 49 -109 16 -49 -28 -85 -68 -117 -132 l-25 -52
-113 -1 c-73 -1 -136 -7 -177 -18 l-64 -17 -86 84 c-91 90 -223 197 -274 223
-16 9 -39 25 -50 35 -12 10 -26 19 -33 19 -7 0 -18 2 -26 5 -7 2 -22 0 -33 -7z
m139 -87 c41 -27 96 -66 122 -87 83 -69 204 -187 204 -200 0 -7 -9 -15 -20
-19 -11 -3 -42 -22 -69 -40 l-50 -34 -49 50 c-51 52 -90 81 -222 165 -41 26
-77 50 -80 54 -3 3 -24 14 -47 24 -24 11 -43 21 -43 24 0 10 96 104 115 112
31 14 58 4 139 -49z m-202 -117 c34 -19 70 -42 79 -50 8 -8 19 -14 24 -14 4 0
26 -15 49 -33 23 -18 55 -41 71 -52 43 -27 135 -116 134 -129 0 -6 -41 -46
-90 -89 l-90 -79 -19 25 c-11 14 -43 41 -72 61 -29 19 -73 49 -98 66 -25 17
-82 50 -127 72 -92 46 -92 47 -29 118 17 19 47 59 65 88 19 28 35 52 37 52 1
0 31 -16 66 -36z m902 -179 c-3 -7 0 -16 6 -20 7 -4 14 2 17 15 5 20 10 21 57
15 75 -10 86 -19 48 -39 -114 -59 -180 -273 -142 -462 13 -67 26 -105 69 -195
39 -82 63 -109 136 -153 54 -32 67 -36 133 -36 61 0 78 4 111 26 113 74 169
275 123 439 -10 39 -23 79 -26 90 -7 18 -6 18 6 4 62 -74 104 -128 208 -268
19 -25 68 -86 108 -134 67 -80 80 -107 50 -107 -14 0 -48 -30 -48 -41 0 -5 21
3 46 16 38 20 62 25 119 25 40 0 85 -5 102 -10 32 -12 63 -63 63 -105 0 -43
-37 -111 -79 -144 -49 -39 -51 -51 -9 -51 72 0 135 -77 123 -151 -13 -76 -88
-131 -223 -163 -61 -14 -112 -41 -112 -58 0 -6 -29 -52 -65 -104 -36 -52 -65
-98 -65 -103 0 -5 -7 -14 -15 -21 -8 -7 -40 -45 -69 -85 -62 -82 -202 -227
-293 -303 -138 -117 -361 -188 -618 -199 -125 -5 -179 -2 -413 24 -35 4 -43 8
-38 22 2 9 14 43 26 76 34 98 40 315 8 315 -7 0 -9 -21 -5 -62 20 -222 -94
-458 -258 -533 -130 -58 -247 -58 -375 1 -86 40 -139 95 -173 181 -29 73 -26
188 6 250 77 147 232 267 412 320 71 20 72 20 59 33 -7 7 -28 5 -62 -5 -52
-16 -203 -83 -212 -94 -3 -4 -18 -15 -33 -25 -16 -9 -46 -34 -68 -53 -22 -20
-41 -34 -43 -32 -9 11 -46 129 -53 169 -23 141 15 288 117 455 17 28 33 57 37
65 4 8 9 17 12 20 3 3 19 30 35 60 16 30 40 75 54 100 14 25 43 79 65 120 72
138 262 413 372 540 143 165 327 304 478 360 118 44 305 54 291 15z m-1011
-85 c88 -52 224 -156 258 -197 8 -9 -2 -27 -43 -72 -29 -34 -58 -61 -64 -61
-6 0 -19 9 -29 20 -10 11 -23 20 -30 20 -7 0 -20 9 -30 20 -10 11 -22 20 -26
20 -4 0 -27 13 -51 29 -24 16 -80 48 -125 71 -46 23 -83 44 -83 46 0 16 98
164 108 164 7 0 59 -27 115 -60z m1437 26 c50 -14 53 -20 28 -55 l-17 -24 -60
53 c-34 29 -61 54 -61 56 0 1 15 -2 33 -8 17 -5 52 -15 77 -22z m-131 4 c86
-43 185 -188 231 -337 39 -125 21 -279 -44 -381 -67 -107 -227 -107 -335 -1
-49 49 -116 197 -131 292 -46 285 105 516 279 427z m282 -58 c59 -39 91 -87
128 -187 13 -33 27 -68 31 -77 5 -9 12 -47 16 -85 l6 -68 -23 27 c-25 27 -29
32 -93 111 -23 28 -40 61 -42 80 -6 57 -14 76 -35 88 -16 8 -25 7 -40 -7 -10
-9 -19 -13 -19 -8 0 5 -11 22 -25 38 -30 35 -30 31 -4 72 24 39 58 45 100 16z
m-1780 -119 c39 -19 201 -122 209 -133 3 -3 31 -23 62 -44 l57 -37 -51 -67
c-28 -37 -55 -71 -59 -76 -4 -5 -64 19 -132 53 -69 33 -128 61 -133 61 -19 0
-84 35 -84 46 0 7 15 50 34 96 19 45 36 91 40 101 7 21 14 21 57 0z m-58 -261
c37 -17 69 -32 71 -32 9 0 176 -102 176 -107 0 -4 -103 -166 -115 -181 -2 -2
-36 16 -77 40 -85 50 -132 73 -170 87 -34 13 -34 23 -3 129 26 88 33 105 43
100 4 -2 37 -18 75 -36z m-70 -233 c34 -18 76 -43 93 -58 17 -14 45 -34 63
-43 l31 -17 -35 -63 c-19 -35 -39 -64 -44 -66 -5 -2 -31 12 -58 31 -26 19 -65
42 -86 52 -23 11 -39 26 -43 41 -6 25 4 154 12 154 3 0 33 -14 67 -31z m0
-213 c80 -51 91 -67 76 -109 -9 -25 -17 -34 -28 -30 -57 20 -155 173 -111 173
6 0 34 -15 63 -34z m-503 -281 c35 -14 94 -43 131 -65 37 -22 72 -40 77 -40 5
0 27 -13 48 -28 21 -16 58 -39 82 -52 44 -25 46 -28 36 -54 -8 -20 -23 -20
-43 -2 -22 19 -101 62 -131 71 -14 4 -38 13 -55 21 -79 35 -222 73 -211 56 3
-5 22 -13 42 -17 55 -10 234 -92 327 -150 33 -21 47 -36 47 -52 0 -28 -15 -29
-126 -9 -44 8 -122 17 -174 19 l-95 6 80 -15 c120 -21 226 -44 263 -57 29 -10
32 -15 32 -49 l0 -38 -102 0 c-104 0 -315 -24 -327 -36 -3 -4 37 -4 89 0 52 3
148 9 212 12 l117 7 11 -27 c18 -47 13 -56 -27 -56 -21 -1 -58 -5 -83 -11 -25
-5 -74 -14 -110 -21 -72 -12 -104 -29 -44 -22 22 2 80 8 129 14 147 16 152 16
165 -26 7 -19 10 -37 8 -38 -3 -3 -63 -20 -133 -37 -42 -11 -177 -70 -171 -76
1 -2 43 10 92 26 49 16 120 35 157 42 91 17 99 8 61 -65 -26 -49 -37 -59 -99
-91 -71 -36 -163 -110 -151 -122 3 -4 19 5 34 19 26 25 106 72 148 88 20 8 21
7 12 -38 -10 -55 -1 -146 18 -184 8 -15 14 -31 14 -36 0 -28 -168 -42 -245
-21 -46 13 -158 90 -183 126 -9 14 -29 39 -43 56 -62 77 -127 221 -154 342 -9
39 -20 88 -25 110 -5 22 -12 87 -16 145 -7 122 9 216 51 303 47 95 141 121
265 72z m2325 -951 c-26 -71 -60 -150 -76 -175 -35 -55 -103 -123 -144 -145
-118 -63 -173 -85 -270 -109 -101 -26 -120 -27 -250 -22 -151 6 -224 25 -293
77 -47 35 -62 69 -62 141 l0 61 33 -6 c17 -3 49 -9 70 -12 30 -5 37 -10 31
-23 -6 -15 -44 -133 -44 -138 0 -2 4 -3 8 -3 9 0 37 76 47 128 l7 32 63 0 c35
0 66 -3 68 -7 4 -7 -11 -64 -47 -170 -13 -43 -5 -59 13 -25 14 26 61 170 61
187 0 12 17 15 91 15 82 0 91 -2 86 -17 -3 -10 -21 -62 -40 -115 -19 -54 -31
-98 -25 -98 11 0 43 69 79 170 l26 75 64 11 c35 7 78 18 96 25 18 7 35 11 37
8 3 -3 -4 -32 -15 -65 -35 -98 -58 -184 -49 -184 8 0 29 51 84 199 l23 64 84
44 c46 25 90 50 97 56 11 8 12 5 6 -19 -4 -16 -13 -41 -20 -55 -7 -14 -22 -48
-32 -75 -11 -27 -27 -66 -36 -86 -10 -23 -12 -39 -6 -43 13 -8 63 105 111 247
18 53 30 73 58 93 20 14 51 41 70 60 19 19 36 33 38 31 2 -2 -17 -62 -42 -132z"/>
<path d="M1842 2373 c-42 -54 -69 -111 -104 -221 -29 -90 -31 -107 -31 -237 1
-140 4 -164 41 -305 79 -300 312 -598 548 -703 34 -15 69 -27 78 -27 36 0 11
22 -81 69 -54 28 -111 62 -127 76 -16 14 -33 25 -38 25 -16 0 -138 131 -181
194 -107 157 -177 321 -196 461 -23 172 -24 230 -6 336 21 130 26 143 92 256
29 51 53 97 53 102 0 21 -19 10 -48 -26z" fill="red"/>
<path d="M1632 2143 c-5 -10 -15 -52 -21 -93 -7 -41 -17 -97 -24 -125 -28
-118 4 -409 59 -530 45 -99 84 -181 102 -210 26 -45 76 -118 87 -131 5 -6 27
-29 47 -52 53 -59 185 -160 246 -189 96 -46 73 -3 -25 48 -23 12 -50 29 -60
38 -10 9 -34 27 -53 40 -47 32 -132 122 -184 196 -43 61 -156 291 -156 318 0
8 -6 30 -14 48 -7 19 -19 83 -26 143 -14 125 -2 285 31 395 21 70 24 107 10
116 -6 3 -14 -2 -19 -12z"/>
<path d="M3483 1784 c-27 -21 -71 -80 -110 -148 -30 -52 -113 -144 -158 -174
-138 -93 -265 -129 -416 -119 -96 6 -142 24 -201 79 -80 74 -164 226 -140 250
6 6 30 10 56 10 25 1 43 5 40 10 -3 4 -26 8 -52 8 -113 -1 -230 -86 -179 -128
10 -9 22 -1 51 33 20 25 41 45 45 45 5 0 13 -19 19 -43 16 -60 80 -155 139
-205 73 -60 131 -83 229 -90 124 -7 198 11 354 87 121 59 143 66 206 69 53 3
79 0 103 -13 44 -22 48 -14 9 15 -26 19 -45 24 -105 24 -40 1 -73 4 -73 7 0 3
12 16 26 30 14 13 34 40 44 60 10 19 45 65 78 101 79 87 100 143 35 92z"/>
<path d="M1465 1670 c-7 -23 -2 -79 21 -210 16 -90 42 -166 82 -240 14 -25 32
-58 41 -75 19 -34 92 -145 124 -187 84 -112 264 -247 314 -236 14 4 11 9 -16
24 -129 74 -233 157 -277 223 -13 20 -49 70 -78 111 -30 41 -55 79 -55 84 -1
5 -19 44 -41 88 -22 44 -40 88 -40 97 0 9 -9 45 -21 81 -11 35 -23 106 -26
158 -6 93 -16 121 -28 82z"/>
<path d="M1270 892 c-125 -102 -169 -142 -215 -192 -27 -30 -56 -59 -62 -63
-7 -4 -13 -16 -13 -25 0 -10 36 19 93 75 50 50 117 110 147 132 30 22 60 44
65 48 6 4 24 15 40 23 37 19 44 40 13 39 -12 0 -43 -17 -68 -37z"/>
<path d="M1334 785 c-37 -41 -90 -106 -118 -143 -28 -38 -63 -84 -78 -103 -40
-51 -93 -152 -77 -147 8 3 19 13 24 24 47 88 186 266 282 362 40 40 73 74 73
77 0 3 -9 5 -19 5 -12 0 -47 -31 -87 -75z"/>
<path d="M1594 839 c-6 -8 -15 -40 -18 -72 -6 -46 -68 -248 -101 -329 -4 -10
-3 -18 1 -18 10 0 17 16 84 175 40 97 66 285 34 244z"/>
<path d="M1405 642 c-118 -231 -111 -216 -94 -210 8 3 25 27 39 54 14 27 38
72 54 99 39 65 116 221 116 234 0 38 -28 -5 -115 -177z"/>
<path d="M2442 2408 c-29 -29 -2 -108 36 -108 16 0 42 41 42 66 0 40 -52 68
-78 42z"/>
<path d="M3399 2940 c-72 -21 -143 -88 -166 -154 -53 -158 16 -321 150 -357
55 -15 152 -3 199 23 106 60 163 208 124 326 -38 114 -114 173 -223 171 -32 0
-70 -4 -84 -9z m206 -50 c38 -35 72 -97 84 -152 15 -65 -3 -134 -48 -195 -50
-65 -87 -82 -186 -82 -92 -1 -124 13 -171 75 -27 35 -29 43 -29 133 0 91 1 98
32 142 28 41 84 88 123 103 8 3 50 4 92 3 66 -2 80 -5 103 -27z"/>
<path d="M3553 2843 c-10 -25 19 -68 46 -68 30 0 46 24 37 58 -5 23 -12 27
-42 27 -23 0 -37 -5 -41 -17z m65 -5 c7 -7 8 -17 1 -30 -18 -33 -49 -16 -49
28 0 17 31 19 48 2z"/>
<path d="M2831 2837 c-19 -19 -12 -36 22 -53 49 -25 142 -100 161 -128 9 -14
21 -26 26 -26 18 0 -23 67 -82 133 -59 67 -106 95 -127 74z"/>
<path d="M3477 2340 c-60 -53 -59 -146 3 -190 107 -76 250 83 162 181 -23 25
-38 33 -78 36 -46 5 -54 2 -87 -27z m131 -17 c15 -16 23 -25 18 -20 -20 15
-46 7 -46 -13 0 -25 25 -36 45 -20 28 24 18 -43 -12 -78 -53 -62 -134 -44
-149 33 -8 43 1 70 34 100 35 33 75 32 110 -2z"/>
</g>
</svg>
